<svg width="1346" height="240" viewBox="0 0 1346 240" fill="none" xmlns="http://www.w3.org/2000/svg">
<path d="M36.5425 207.56H111.743V237H0.062501V14.6H36.5425V207.56ZM303.85 144.52C303.85 151.133 303.423 157.107 302.57 162.44H167.85C168.917 176.52 174.143 187.827 183.53 196.36C192.917 204.893 204.437 209.16 218.09 209.16C237.717 209.16 251.583 200.947 259.69 184.52H299.05C293.717 200.733 284.01 214.067 269.93 224.52C256.063 234.76 238.783 239.88 218.09 239.88C201.237 239.88 186.09 236.147 172.65 228.68C159.423 221 148.97 210.333 141.29 196.68C133.823 182.813 130.09 166.813 130.09 148.68C130.09 130.547 133.717 114.653 140.97 101C148.437 87.1333 158.783 76.4667 172.01 69C185.45 61.5333 200.81 57.8 218.09 57.8C234.73 57.8 249.557 61.4267 262.57 68.68C275.583 75.9333 285.717 86.1733 292.97 99.4C300.223 112.413 303.85 127.453 303.85 144.52ZM265.77 133C265.557 119.56 260.757 108.787 251.37 100.68C241.983 92.5733 230.357 88.52 216.49 88.52C203.903 88.52 193.13 92.5733 184.17 100.68C175.21 108.573 169.877 119.347 168.17 133H265.77ZM382.31 90.44V188.04C382.31 194.653 383.803 199.453 386.79 202.44C389.99 205.213 395.323 206.6 402.79 206.6H425.19V237H396.39C379.963 237 367.377 233.16 358.63 225.48C349.883 217.8 345.51 205.32 345.51 188.04V90.44H324.71V60.68H345.51V16.84H382.31V60.68H425.19V90.44H382.31ZM522.813 239.88C508.946 239.88 496.466 237.427 485.373 232.52C474.493 227.4 465.853 220.573 459.453 212.04C453.053 203.293 449.639 193.587 449.213 182.92H486.973C487.613 190.387 491.133 196.68 497.533 201.8C504.146 206.707 512.359 209.16 522.173 209.16C532.413 209.16 540.306 207.24 545.853 203.4C551.613 199.347 554.493 194.227 554.493 188.04C554.493 181.427 551.293 176.52 544.893 173.32C538.706 170.12 528.786 166.6 515.133 162.76C501.906 159.133 491.133 155.613 482.813 152.2C474.493 148.787 467.239 143.56 461.053 136.52C455.079 129.48 452.093 120.2 452.093 108.68C452.093 99.2933 454.866 90.76 460.413 83.08C465.959 75.1867 473.853 69 484.093 64.52C494.546 60.04 506.493 57.8 519.933 57.8C539.986 57.8 556.093 62.92 568.253 73.16C580.626 83.1867 587.239 96.9467 588.093 114.44H551.613C550.973 106.547 547.773 100.253 542.013 95.56C536.253 90.8667 528.466 88.52 518.653 88.52C509.053 88.52 501.693 90.3333 496.573 93.96C491.453 97.5867 488.893 102.387 488.893 108.36C488.893 113.053 490.599 117 494.013 120.2C497.426 123.4 501.586 125.96 506.493 127.88C511.399 129.587 518.653 131.827 528.253 134.6C541.053 138.013 551.506 141.533 559.613 145.16C567.933 148.573 575.079 153.693 581.053 160.52C587.026 167.347 590.119 176.413 590.333 187.72C590.333 197.747 587.559 206.707 582.013 214.6C576.466 222.493 568.573 228.68 558.333 233.16C548.306 237.64 536.466 239.88 522.813 239.88ZM856.555 14.6V44.36H797.355V237H760.875V44.36H701.355V14.6H856.555ZM881.34 148.04C881.34 130.333 884.967 114.653 892.22 101C899.687 87.3467 909.713 76.7867 922.3 69.32C935.1 61.64 949.18 57.8 964.54 57.8C978.407 57.8 990.46 60.5733 1000.7 66.12C1011.15 71.4533 1019.47 78.1733 1025.66 86.28V60.68H1062.46V237H1025.66V210.76C1019.47 219.08 1011.05 226.013 1000.38 231.56C989.713 237.107 977.553 239.88 963.9 239.88C948.753 239.88 934.887 236.04 922.3 228.36C909.713 220.467 899.687 209.587 892.22 195.72C884.967 181.64 881.34 165.747 881.34 148.04ZM1025.66 148.68C1025.66 136.52 1023.1 125.96 1017.98 117C1013.07 108.04 1006.57 101.213 998.46 96.52C990.353 91.8267 981.607 89.48 972.22 89.48C962.833 89.48 954.087 91.8267 945.98 96.52C937.873 101 931.26 107.72 926.14 116.68C921.233 125.427 918.78 135.88 918.78 148.04C918.78 160.2 921.233 170.867 926.14 180.04C931.26 189.213 937.873 196.253 945.98 201.16C954.3 205.853 963.047 208.2 972.22 208.2C981.607 208.2 990.353 205.853 998.46 201.16C1006.57 196.467 1013.07 189.64 1017.98 180.68C1023.1 171.507 1025.66 160.84 1025.66 148.68ZM1146.86 0.199997V237H1110.38V0.199997H1146.86ZM1264.51 149L1345.79 237H1296.51L1231.23 161.16V237H1194.75V0.199997H1231.23V137.8L1295.23 60.68H1345.79L1264.51 149Z" fill="white"/>
</svg>
